<?plantuml 1.2026.2beta2?><svg xmlns="http://www.w3.org/2000/svg" xmlns:xlink="http://www.w3.org/1999/xlink" contentStyleType="text/css" data-diagram-type="CLASS" height="651px" preserveAspectRatio="none" style="width:2085px;height:651px;background:#FFFFFF;" version="1.1" viewBox="0 0 2085 651" width="2085px" zoomAndPan="magnify"><defs/><g><!--class TransportUnternehmen--><g class="entity" data-qualified-name="TransportUnternehmen" data-source-line="1" id="ent0002"><rect fill="#F1F1F1" height="129.4844" rx="2.5" ry="2.5" style="stroke:#181818;stroke-width:0.5;" width="483.3721" x="492.86" y="23.29"/><ellipse cx="648.1896" cy="39.29" fill="#ADD1B2" rx="11" ry="11" style="stroke:#181818;stroke-width:1;"/><path d="M651.1583,44.9306 Q650.5802,45.2275 649.9396,45.3681 Q649.299,45.5244 648.5958,45.5244 Q646.0958,45.5244 644.7677,43.8838 Q643.4552,42.2275 643.4552,39.1025 Q643.4552,35.9775 644.7677,34.3213 Q646.0958,32.665 648.5958,32.665 Q649.299,32.665 649.9396,32.8213 Q650.5958,32.9775 651.1583,33.2744 L651.1583,35.9931 Q650.5333,35.415 649.9396,35.1494 Q649.3458,34.8681 648.7208,34.8681 Q647.3771,34.8681 646.6896,35.9463 Q646.0021,37.0088 646.0021,39.1025 Q646.0021,41.1963 646.6896,42.2744 Q647.3771,43.3369 648.7208,43.3369 Q649.3458,43.3369 649.9396,43.0713 Q650.5333,42.79 651.1583,42.2119 L651.1583,44.9306 Z " fill="#000000"/><text fill="#000000" font-family="sans-serif" font-size="14" lengthAdjust="spacing" textLength="164.2129" x="668.6896" y="44.1367">TransportUnternehmen</text><line style="stroke:#181818;stroke-width:0.5;" x1="493.86" x2="975.2321" y1="55.29" y2="55.29"/><g data-visibility-modifier="PRIVATE_FIELD"><rect fill="none" height="6" style="stroke:#C82930;stroke-width:1;" width="6" x="500.86" y="65.9384"/></g><text fill="#000000" font-family="sans-serif" font-size="14" lengthAdjust="spacing" textLength="136.5342" x="512.86" y="72.2851">id: int  {= 100000}</text><g data-visibility-modifier="PRIVATE_FIELD"><rect fill="none" height="6" style="stroke:#C82930;stroke-width:1;" width="6" x="500.86" y="82.2353"/></g><text fill="#000000" font-family="sans-serif" font-size="14" lengthAdjust="spacing" textLength="249.334" x="512.86" y="88.582">name : String  {not null, not blank}</text><g data-visibility-modifier="PRIVATE_FIELD"><rect fill="none" height="6" style="stroke:#C82930;stroke-width:1;" width="6" x="500.86" y="98.5322"/></g><text fill="#000000" font-family="sans-serif" font-size="14" lengthAdjust="spacing" textLength="132.8291" x="512.86" y="104.8789">abstellFlaeche : int</text><g data-visibility-modifier="PRIVATE_FIELD"><rect fill="none" height="6" style="stroke:#C82930;stroke-width:1;" width="6" x="500.86" y="114.8291"/></g><text fill="#000000" font-family="sans-serif" font-size="14" lengthAdjust="spacing" textLength="208.2842" x="512.86" y="121.1757">beladungsTyp : Beladungstyp</text><line style="stroke:#181818;stroke-width:0.5;" x1="493.86" x2="975.2321" y1="128.4775" y2="128.4775"/><g data-visibility-modifier="PUBLIC_METHOD"><ellipse cx="503.86" cy="142.1259" fill="#84BE84" rx="3" ry="3" style="stroke:#038048;stroke-width:1;"/></g><text fill="#000000" font-family="sans-serif" font-size="14" lengthAdjust="spacing" textLength="457.3721" x="512.86" y="145.4726">TransportUnternehmen(String name : int, int abstellFlaeche : int)</text></g><!--class Fahrzeug--><g class="entity" data-qualified-name="Fahrzeug" data-source-line="10" id="ent0003"><rect fill="#F1F1F1" height="145.7813" rx="2.5" ry="2.5" style="stroke:#181818;stroke-width:0.5;" width="894.2939" x="580.4" y="246.07"/><ellipse cx="990.8058" cy="262.07" fill="#ADD1B2" rx="11" ry="11" style="stroke:#181818;stroke-width:1;"/><path d="M993.7745,267.7106 Q993.1964,268.0075 992.5558,268.1481 Q991.9151,268.3044 991.212,268.3044 Q988.712,268.3044 987.3839,266.6638 Q986.0714,265.0075 986.0714,261.8825 Q986.0714,258.7575 987.3839,257.1013 Q988.712,255.445 991.212,255.445 Q991.9151,255.445 992.5558,255.6013 Q993.212,255.7575 993.7745,256.0544 L993.7745,258.7731 Q993.1495,258.195 992.5558,257.9294 Q991.962,257.6481 991.337,257.6481 Q989.9933,257.6481 989.3058,258.7263 Q988.6183,259.7888 988.6183,261.8825 Q988.6183,263.9763 989.3058,265.0544 Q989.9933,266.1169 991.337,266.1169 Q991.962,266.1169 992.5558,265.8513 Q993.1495,265.57 993.7745,264.9919 L993.7745,267.7106 Z " fill="#000000"/><text fill="#000000" font-family="sans-serif" font-size="14" lengthAdjust="spacing" textLength="64.9824" x="1011.3058" y="266.9167">Fahrzeug</text><line style="stroke:#181818;stroke-width:0.5;" x1="581.4" x2="1473.6939" y1="278.07" y2="278.07"/><g data-visibility-modifier="PRIVATE_FIELD"><rect fill="none" height="6" style="stroke:#C82930;stroke-width:1;" width="6" x="588.4" y="288.7184"/></g><text fill="#000000" font-family="sans-serif" font-size="14" lengthAdjust="spacing" textLength="350.4648" x="600.4" y="295.0651">kennzeichen : String {not null, not blank, unique}</text><g data-visibility-modifier="PRIVATE_FIELD"><rect fill="none" height="6" style="stroke:#C82930;stroke-width:1;" width="6" x="588.4" y="305.0153"/></g><text fill="#000000" font-family="sans-serif" font-size="14" lengthAdjust="spacing" textLength="115.7119" x="600.4" y="311.362">gewichtMax : int</text><g data-visibility-modifier="PRIVATE_FIELD"><rect fill="none" height="6" style="stroke:#C82930;stroke-width:1;" width="6" x="588.4" y="321.3122"/></g><text fill="#000000" font-family="sans-serif" font-size="14" lengthAdjust="spacing" textLength="135.208" x="600.4" y="327.6589">gewichtAktuell : int</text><g data-visibility-modifier="PRIVATE_FIELD"><rect fill="none" height="6" style="stroke:#C82930;stroke-width:1;" width="6" x="588.4" y="337.6091"/></g><text fill="#000000" font-family="sans-serif" font-size="14" lengthAdjust="spacing" textLength="66.0625" x="600.4" y="343.9557">platz : int</text><g data-visibility-modifier="PRIVATE_FIELD"><rect fill="none" height="6" style="stroke:#C82930;stroke-width:1;" width="6" x="588.4" y="353.9059"/></g><text fill="#000000" font-family="sans-serif" font-size="14" lengthAdjust="spacing" textLength="205.2217" x="600.4" y="360.2526">beladungstyp : Beladungstyp</text><line style="stroke:#181818;stroke-width:0.5;" x1="581.4" x2="1473.6939" y1="367.5544" y2="367.5544"/><g data-visibility-modifier="PUBLIC_METHOD"><ellipse cx="591.4" cy="381.2028" fill="#84BE84" rx="3" ry="3" style="stroke:#038048;stroke-width:1;"/></g><text fill="#000000" font-family="sans-serif" font-size="14" lengthAdjust="spacing" textLength="868.2939" x="600.4" y="384.5495">Fahrzeug(String kennzeichen : int, int gewichtMax : int, int gewichtAktuell : int, int platz : int, beladungstyp : Beladungstyp)</text></g><!--class Baustelle--><g class="entity" data-qualified-name="Baustelle" data-source-line="20" id="ent0004"><rect fill="#F1F1F1" height="145.7813" rx="2.5" ry="2.5" style="stroke:#181818;stroke-width:0.5;" width="619.127" x="1010.99" y="15.14"/><ellipse cx="1283.8806" cy="31.14" fill="#ADD1B2" rx="11" ry="11" style="stroke:#181818;stroke-width:1;"/><path d="M1286.8494,36.7806 Q1286.2713,37.0775 1285.6306,37.2181 Q1284.99,37.3744 1284.2869,37.3744 Q1281.7869,37.3744 1280.4588,35.7337 Q1279.1463,34.0775 1279.1463,30.9525 Q1279.1463,27.8275 1280.4588,26.1712 Q1281.7869,24.515 1284.2869,24.515 Q1284.99,24.515 1285.6306,24.6712 Q1286.2869,24.8275 1286.8494,25.1244 L1286.8494,27.8431 Q1286.2244,27.265 1285.6306,26.9994 Q1285.0369,26.7181 1284.4119,26.7181 Q1283.0681,26.7181 1282.3806,27.7962 Q1281.6931,28.8587 1281.6931,30.9525 Q1281.6931,33.0462 1282.3806,34.1244 Q1283.0681,35.1869 1284.4119,35.1869 Q1285.0369,35.1869 1285.6306,34.9212 Q1286.2244,34.64 1286.8494,34.0619 L1286.8494,36.7806 Z " fill="#000000"/><text fill="#000000" font-family="sans-serif" font-size="14" lengthAdjust="spacing" textLength="64.8457" x="1304.3806" y="35.9867">Baustelle</text><line style="stroke:#181818;stroke-width:0.5;" x1="1011.99" x2="1629.117" y1="47.14" y2="47.14"/><g data-visibility-modifier="PRIVATE_FIELD"><rect fill="none" height="6" style="stroke:#C82930;stroke-width:1;" width="6" x="1018.99" y="57.7884"/></g><text fill="#000000" font-family="sans-serif" font-size="14" lengthAdjust="spacing" textLength="51.9941" x="1030.99" y="64.1351">plz : int</text><g data-visibility-modifier="PRIVATE_FIELD"><rect fill="none" height="6" style="stroke:#C82930;stroke-width:1;" width="6" x="1018.99" y="74.0853"/></g><text fill="#000000" font-family="sans-serif" font-size="14" lengthAdjust="spacing" textLength="75.209" x="1030.99" y="80.432">ort : String</text><g data-visibility-modifier="PRIVATE_FIELD"><rect fill="none" height="6" style="stroke:#C82930;stroke-width:1;" width="6" x="1018.99" y="90.3822"/></g><text fill="#000000" font-family="sans-serif" font-size="14" lengthAdjust="spacing" textLength="105.7178" x="1030.99" y="96.7289">strasse : String</text><g data-visibility-modifier="PRIVATE_FIELD"><rect fill="none" height="6" style="stroke:#C82930;stroke-width:1;" width="6" x="1018.99" y="106.6791"/></g><text fill="#000000" font-family="sans-serif" font-size="14" lengthAdjust="spacing" textLength="124.8789" x="1030.99" y="113.0257">hausnummer : int</text><g data-visibility-modifier="PRIVATE_FIELD"><rect fill="none" height="6" style="stroke:#C82930;stroke-width:1;" width="6" x="1018.99" y="122.9759"/></g><text fill="#000000" font-family="sans-serif" font-size="14" lengthAdjust="spacing" textLength="123.9561" x="1030.99" y="129.3226">platzangebot : int</text><line style="stroke:#181818;stroke-width:0.5;" x1="1011.99" x2="1629.117" y1="136.6244" y2="136.6244"/><g data-visibility-modifier="PUBLIC_METHOD"><ellipse cx="1021.99" cy="150.2728" fill="#84BE84" rx="3" ry="3" style="stroke:#038048;stroke-width:1;"/></g><text fill="#000000" font-family="sans-serif" font-size="14" lengthAdjust="spacing" textLength="593.127" x="1030.99" y="153.6195">Baustelle(plz : int, ort : String, strasse : String, hausnummer : int, platzangebot : int)</text></g><!--class Kran--><g class="entity" data-qualified-name="Kran" data-source-line="30" id="ent0005"><rect fill="#F1F1F1" height="129.4844" rx="2.5" ry="2.5" style="stroke:#181818;stroke-width:0.5;" width="989.1016" x="7" y="514.86"/><ellipse cx="481.1064" cy="530.86" fill="#ADD1B2" rx="11" ry="11" style="stroke:#181818;stroke-width:1;"/><path d="M484.0752,536.5006 Q483.4971,536.7975 482.8564,536.9381 Q482.2158,537.0944 481.5127,537.0944 Q479.0127,537.0944 477.6846,535.4538 Q476.3721,533.7975 476.3721,530.6725 Q476.3721,527.5475 477.6846,525.8913 Q479.0127,524.235 481.5127,524.235 Q482.2158,524.235 482.8564,524.3913 Q483.5127,524.5475 484.0752,524.8444 L484.0752,527.5631 Q483.4502,526.985 482.8564,526.7194 Q482.2627,526.4381 481.6377,526.4381 Q480.2939,526.4381 479.6064,527.5163 Q478.9189,528.5788 478.9189,530.6725 Q478.9189,532.7663 479.6064,533.8444 Q480.2939,534.9069 481.6377,534.9069 Q482.2627,534.9069 482.8564,534.6413 Q483.4502,534.36 484.0752,533.7819 L484.0752,536.5006 Z " fill="#000000"/><text fill="#000000" font-family="sans-serif" font-size="14" lengthAdjust="spacing" textLength="32.3887" x="501.6064" y="535.7067">Kran</text><line style="stroke:#181818;stroke-width:0.5;" x1="8" x2="995.1016" y1="546.86" y2="546.86"/><g data-visibility-modifier="PRIVATE_FIELD"><rect fill="none" height="6" style="stroke:#C82930;stroke-width:1;" width="6" x="15" y="557.5084"/></g><text fill="#000000" font-family="sans-serif" font-size="14" lengthAdjust="spacing" textLength="75.4072" x="27" y="563.8551">hoehe : int</text><g data-visibility-modifier="PRIVATE_FIELD"><rect fill="none" height="6" style="stroke:#C82930;stroke-width:1;" width="6" x="15" y="573.8053"/></g><text fill="#000000" font-family="sans-serif" font-size="14" lengthAdjust="spacing" textLength="113.4014" x="27" y="580.152">hubgewicht : int</text><g data-visibility-modifier="PRIVATE_FIELD"><rect fill="none" height="6" style="stroke:#C82930;stroke-width:1;" width="6" x="15" y="590.1022"/></g><text fill="#000000" font-family="sans-serif" font-size="14" lengthAdjust="spacing" textLength="145.25" x="27" y="596.4489">gewichtMax : int = 0</text><g data-visibility-modifier="PRIVATE_FIELD"><rect fill="none" height="6" style="stroke:#C82930;stroke-width:1;" width="6" x="15" y="606.3991"/></g><text fill="#000000" font-family="sans-serif" font-size="14" lengthAdjust="spacing" textLength="403.5664" x="27" y="612.7457">beladungsTyp : Beladungstyp {=Beladungstyp.NORMAL}</text><line style="stroke:#181818;stroke-width:0.5;" x1="8" x2="995.1016" y1="620.0475" y2="620.0475"/><g data-visibility-modifier="PUBLIC_METHOD"><ellipse cx="18" cy="633.6959" fill="#84BE84" rx="3" ry="3" style="stroke:#038048;stroke-width:1;"/></g><text fill="#000000" font-family="sans-serif" font-size="14" lengthAdjust="spacing" textLength="963.1016" x="27" y="637.0426">Kran(String kennzeichen : int, int gewichtAktuell : int, int platz : int, Beladungstyp beladungstyp : int, int hoehe : int, int hubgewicht : int)</text></g><!--class Lastwagen--><g class="entity" data-qualified-name="Lastwagen" data-source-line="39" id="ent0006"><rect fill="#F1F1F1" height="113.1875" rx="2.5" ry="2.5" style="stroke:#181818;stroke-width:0.5;" width="1046.9678" x="1031.07" y="523"/><ellipse cx="1512.5217" cy="539" fill="#ADD1B2" rx="11" ry="11" style="stroke:#181818;stroke-width:1;"/><path d="M1515.4904,544.6406 Q1514.9123,544.9375 1514.2717,545.0781 Q1513.631,545.2344 1512.9279,545.2344 Q1510.4279,545.2344 1509.0998,543.5938 Q1507.7873,541.9375 1507.7873,538.8125 Q1507.7873,535.6875 1509.0998,534.0313 Q1510.4279,532.375 1512.9279,532.375 Q1513.631,532.375 1514.2717,532.5313 Q1514.9279,532.6875 1515.4904,532.9844 L1515.4904,535.7031 Q1514.8654,535.125 1514.2717,534.8594 Q1513.6779,534.5781 1513.0529,534.5781 Q1511.7092,534.5781 1511.0217,535.6563 Q1510.3342,536.7188 1510.3342,538.8125 Q1510.3342,540.9063 1511.0217,541.9844 Q1511.7092,543.0469 1513.0529,543.0469 Q1513.6779,543.0469 1514.2717,542.7813 Q1514.8654,542.5 1515.4904,541.9219 L1515.4904,544.6406 Z " fill="#000000"/><text fill="#000000" font-family="sans-serif" font-size="14" lengthAdjust="spacing" textLength="75.5645" x="1533.0217" y="543.8467">Lastwagen</text><line style="stroke:#181818;stroke-width:0.5;" x1="1032.07" x2="2077.0378" y1="555" y2="555"/><g data-visibility-modifier="PRIVATE_FIELD"><rect fill="none" height="6" style="stroke:#C82930;stroke-width:1;" width="6" x="1039.07" y="565.6484"/></g><text fill="#000000" font-family="sans-serif" font-size="14" lengthAdjust="spacing" textLength="340.1699" x="1051.07" y="571.9951">achsenzahl : int {achsenzahl&gt;1, achsenzahl&lt;5}</text><g data-visibility-modifier="PRIVATE_FIELD"><rect fill="none" height="6" style="stroke:#C82930;stroke-width:1;" width="6" x="1039.07" y="581.9453"/></g><text fill="#000000" font-family="sans-serif" font-size="14" lengthAdjust="spacing" textLength="197.0664" x="1051.07" y="588.292">gewichtMax : int {&gt;=2000}</text><g data-visibility-modifier="PRIVATE_FIELD"><rect fill="none" height="6" style="stroke:#C82930;stroke-width:1;" width="6" x="1039.07" y="598.2422"/></g><text fill="#000000" font-family="sans-serif" font-size="14" lengthAdjust="spacing" textLength="129.6025" x="1051.07" y="604.5889">platz : int {&gt;=10}</text><line style="stroke:#181818;stroke-width:0.5;" x1="1032.07" x2="2077.0378" y1="611.8906" y2="611.8906"/><g data-visibility-modifier="PUBLIC_METHOD"><ellipse cx="1042.07" cy="625.5391" fill="#84BE84" rx="3" ry="3" style="stroke:#038048;stroke-width:1;"/></g><text fill="#000000" font-family="sans-serif" font-size="14" lengthAdjust="spacing" textLength="1020.9678" x="1051.07" y="628.8857">Lastwagen(String kennzeichen : int, int gewichtMax : int, int gewichtAktuell : int, int platz : int, beladungstyp : Beladungstyp, int achsenzahl : int)</text></g><!--class Beladungstyp--><g class="entity" data-qualified-name="Beladungstyp" data-source-line="47" id="ent0007"><rect fill="#F1F1F1" height="162.0781" rx="2.5" ry="2.5" style="stroke:#181818;stroke-width:0.5;" width="203.1943" x="1664.95" y="7"/><ellipse cx="1714.2166" cy="23" fill="#EB937F" rx="11" ry="11" style="stroke:#181818;stroke-width:1;"/><path d="M1718.326,29 L1710.6072,29 L1710.6072,16.6094 L1718.326,16.6094 L1718.326,18.7656 L1713.0604,18.7656 L1713.0604,21.4375 L1717.826,21.4375 L1717.826,23.5938 L1713.0604,23.5938 L1713.0604,26.8438 L1718.326,26.8438 L1718.326,29 Z " fill="#000000"/><text fill="#000000" font-family="sans-serif" font-size="14" lengthAdjust="spacing" textLength="96.1611" x="1734.7166" y="27.8467">Beladungstyp</text><line style="stroke:#181818;stroke-width:0.5;" x1="1665.95" x2="1867.1443" y1="39" y2="39"/><text fill="#000000" font-family="sans-serif" font-size="14" lengthAdjust="spacing" textLength="90.2139" x="1684.95" y="55.9951">NORMAL = 0</text><text fill="#000000" font-family="sans-serif" font-size="14" lengthAdjust="spacing" textLength="104.8154" x="1684.95" y="72.292">SPERRGUT = 3</text><text fill="#000000" font-family="sans-serif" font-size="14" lengthAdjust="spacing" textLength="144.9902" x="1684.95" y="88.5889">GEFAHRENGUT = 10</text><text fill="#000000" font-family="sans-serif" font-size="14" lengthAdjust="spacing" textLength="106.7363" x="1684.95" y="104.8857">EXPLOSIV = 20</text><g data-visibility-modifier="PRIVATE_FIELD"><rect fill="none" height="6" style="stroke:#C82930;stroke-width:1;" width="6" x="1672.95" y="114.8359"/></g><text fill="#000000" font-family="sans-serif" font-size="14" lengthAdjust="spacing" textLength="65.6592" x="1684.95" y="121.1826">value: int</text><line style="stroke:#181818;stroke-width:0.5;" x1="1665.95" x2="1867.1443" y1="128.4844" y2="128.4844"/><g data-visibility-modifier="PRIVATE_METHOD"><rect fill="#F24D5C" height="6" style="stroke:#C82930;stroke-width:1;" width="6" x="1672.95" y="139.1328"/></g><text fill="#000000" font-family="sans-serif" font-size="14" lengthAdjust="spacing" textLength="177.1943" x="1684.95" y="145.4795">Beladungstyp( value: int)</text><g data-visibility-modifier="PUBLIC_METHOD"><ellipse cx="1675.95" cy="158.4297" fill="#84BE84" rx="3" ry="3" style="stroke:#038048;stroke-width:1;"/></g><text fill="#000000" font-family="sans-serif" font-size="14" lengthAdjust="spacing" textLength="95.0811" x="1684.95" y="161.7764">getPlatz(): int</text></g><!--reverse link Fahrzeug to Kran--><g class="link" data-entity-1="ent0003" data-entity-2="ent0005" data-link-type="extension" data-source-line="57" id="lnk8"><path codeLine="57" d="M864.1768,400.2919 C786.2168,438.6219 707.46,477.35 632.15,514.38" fill="none" id="Fahrzeug-backto-Kran" style="stroke:#181818;stroke-width:1;"/><polygon fill="none" points="880.33,392.35,861.5295,394.9075,866.8241,405.6763,880.33,392.35" style="stroke:#181818;stroke-width:1;"/></g><!--reverse link Fahrzeug to Lastwagen--><g class="link" data-entity-1="ent0003" data-entity-2="ent0006" data-link-type="extension" data-source-line="58" id="lnk9"><path codeLine="58" d="M1191.2085,400.2812 C1275.2485,441.5312 1362.81,484.5 1440.56,522.66" fill="none" id="Fahrzeug-backto-Lastwagen" style="stroke:#181818;stroke-width:1;"/><polygon fill="none" points="1175.05,392.35,1188.5647,405.6673,1193.8522,394.895,1175.05,392.35" style="stroke:#181818;stroke-width:1;"/></g><!--link TransportUnternehmen to Fahrzeug--><g class="link" data-entity-1="ent0002" data-entity-2="ent0003" data-link-type="dependency" data-source-line="60" id="lnk10"><path codeLine="60" d="M816.56,153.11 C853.38,181.88 892.2619,212.2661 930.2519,241.9461" fill="none" id="TransportUnternehmen-to-Fahrzeug" style="stroke:#181818;stroke-width:1;"/><polygon fill="#181818" points="934.98,245.64,930.3504,236.9471,931.0399,242.5618,925.4252,243.2513,934.98,245.64" style="stroke:#181818;stroke-width:1;"/><text fill="#000000" font-family="sans-serif" font-size="13" lengthAdjust="spacing" textLength="43.6528" x="891.55" y="212.1369">besitzt</text><text fill="#000000" font-family="sans-serif" font-size="13" lengthAdjust="spacing" textLength="24.8066" x="795.6224" y="172.6683">0..1</text><text fill="#000000" font-family="sans-serif" font-size="13" lengthAdjust="spacing" textLength="24.7749" x="896.8661" y="235.01">0..n</text></g><!--link Baustelle to Fahrzeug--><g class="link" data-entity-1="ent0004" data-entity-2="ent0003" data-link-type="dependency" data-source-line="61" id="lnk11"><path codeLine="61" d="M1228.25,161.16 C1193.77,188.09 1159.3672,214.9649 1124.8772,241.9249" fill="none" id="Baustelle-to-Fahrzeug" style="stroke:#181818;stroke-width:1;"/><polygon fill="#181818" points="1120.15,245.62,1129.7042,243.2288,1124.0893,242.5407,1124.7773,236.9259,1120.15,245.62" style="stroke:#181818;stroke-width:1;"/><text fill="#000000" font-family="sans-serif" font-size="13" lengthAdjust="spacing" textLength="21.3027" x="1175.55" y="212.1369">hat</text><text fill="#000000" font-family="sans-serif" font-size="13" lengthAdjust="spacing" textLength="24.8066" x="1190.1627" y="180.9182">0..2</text><text fill="#000000" font-family="sans-serif" font-size="13" lengthAdjust="spacing" textLength="24.7749" x="1099.6851" y="234.9881">0..n</text></g><?plantuml-src nLJ1Rjf04BtlLuno0jL6cAgNA20H2TAg9450gbxNP6HRB0krTvi6ohzdl3RhjUFItih9ysPcvxstmwu5pp9OfLnc-rsgdgJ2L6AyHGb71k13ydmDYLG0no44_VntChZaMuHhMAeqaH5bvKw1r49ua7-5WijDKSZ3JA4GKy5n7USjT9f9X2ZuivPHjdhT4tnx3jNhdb71XrPMdN9WEPxEyWozjYbTTc9iRGHEUPmUK4Ubg0rAUS24AcMbeKs21recFpGMKY9yeHvrptyvCafml56Q23Y9lU3gqAPN_K7lcUHPOvsbbTfaKKDhD8gCmyExHCAnwvPhOoUINRaGAyC7kWvhMHvdAgKEh64njKkztM9QzHaMN4OOxbI9Cj9i9tNi5AysmtitmNjtljTokgFcA-qH62Nn3giLf527fMqLrdGNXj1dbxUL_Xfks7juNDoFPoUZBv_zR_VvjvkhJMnSe-rm19P0Gw9ZoundweL7A8qrV1rdA0yyBXd0iK96WUVaRpwTMeqwZeQ3udcexNwE1_t23JloFwru-LOqf1fFa1QgLakk51TPRC1oFbaixfvM57raS3UPZZyl9Wy5451-ydq-Urn--KRXm2pCJouqshLoJ-uukMvkIuHgdYleT8jwecCVh9lVlk-RDMfYrap6Mj_lgtwl5y0L-Fx8V1DIlOEaFCGiKGV5x5_GL0qkTCHSlG40?></g></svg>